<?xml version="1.0" encoding="UTF-8" standalone="no"?>
<svg
   xmlns:dc="http://purl.org/dc/elements/1.1/"
   xmlns:cc="http://creativecommons.org/ns#"
   xmlns:rdf="http://www.w3.org/1999/02/22-rdf-syntax-ns#"
   xmlns:svg="http://www.w3.org/2000/svg"
   xmlns="http://www.w3.org/2000/svg"
   xmlns:sodipodi="http://sodipodi.sourceforge.net/DTD/sodipodi-0.dtd"
   xmlns:inkscape="http://www.inkscape.org/namespaces/inkscape"
   inkscape:version="1.0 (4035a4fb49, 2020-05-01)"
   sodipodi:docname="Emblem_of_the_South_African_Navy.svg"
   xml:space="preserve"
   style="enable-background:new 0 0 300 295.2;"
   viewBox="0 0 300 295.2"
   height="295.2"
   wide="300"
   id="Layer_1"
   version="1.1"><metadata
   id="metadata237"><rdf:RDF><cc:Work
       rdf:about=""><dc:format>image/svg+xml</dc:format><dc:type
         rdf:resource="http://purl.org/dc/dcmitype/StillImage" /></cc:Work></rdf:RDF></metadata><defs
   id="defs235" /><sodipodi:namedview
   inkscape:current-layer="Layer_1"
   inkscape:window-maximized="1"
   inkscape:window-y="-8"
   inkscape:window-x="-8"
   inkscape:cy="133.70824"
   inkscape:cx="150"
   inkscape:zoom="2.8794037"
   showgrid="false"
   id="namedview233"
   inkscape:window-height="1018"
   inkscape:window-width="1920"
   inkscape:pageshadow="2"
   inkscape:pageopacity="0"
   guidetolerance="10"
   gridtolerance="10"
   objecttolerance="10"
   borderopacity="1"
   bordercolor="#666666"
   pagecolor="#ffffff" />
<style
   id="style2"
   type="text/css">
	.st0{fill:#2E3191;stroke:#2E3191;stroke-width:12.443}
	.st1{fill:none;stroke:#FFCC02;stroke-width:9.4893;stroke-miterlimit:2.6131;}
	.st2{fill:#FFFFFF;}
	.st3{fill:#EC1C24;}
	.st4{fill:#075537;}
	.st5{fill:#231F20;}
	.st6{fill:#FFCC02;}
	.st7{fill:#894600;}
	.st8{fill:none;}
	.st9{fill:none;stroke:#2E3191;stroke-width:0.5;stroke-miterlimit:2.6131;}
</style>
<g
   id="g230">
	<path
   id="path4"
   d="m 58,45.4 c 45,11.2 74.6,-10.9 91.7,-34.9 22.5,29.6 53.5,41.1 89.5,32.3 -1.8,34.5 16.5,66.8 50.2,81.8 -24.2,25.6 -31.6,61.1 -16.1,95 -29.8,5.4 -59.6,18.9 -73.3,63.1 -32.1,-17.2 -60.8,-22.5 -96,2.1 C 91.5,245.3 62.4,226.8 28,223.1 43.5,185.5 35.1,153.5 10.6,128.6 48,109.2 59.4,82.1 58,45.4 Z"
   class="st0" />
	<path
   id="path6"
   d="m 58,45.4 c 45,11.2 74.6,-10.9 91.7,-34.9 22.5,29.6 53.5,41.1 89.5,32.3 -1.8,34.5 16.5,66.8 50.2,81.8 -24.2,25.6 -31.6,61.1 -16.1,95 -29.8,5.4 -59.6,18.9 -73.3,63.1 -32.1,-17.2 -60.8,-22.5 -96,2.1 C 91.5,245.3 62.4,226.8 28,223.1 43.5,185.5 35.1,153.5 10.6,128.6 48,109.2 59.4,82.1 58,45.4 Z"
   class="st1" />
	<path
   id="path8"
   d="m 156,78.2 -0.4,-14.3 c -1.4,-3 -5,-3.7 -6.8,0.1 l -0.2,14.2 H 137 l 0.2,21.6 10.8,1.4 -0.7,34.2 c 3.2,-0.7 6,1.3 9.2,0.6 l -0.1,-34.7 10.9,-1.5 0.2,-21.5 z"
   class="st2" />
	<path
   id="path10"
   d="m 99.3,94.5 c 0,1.8 1.2,3.2 2.6,3.2 1.4,0 2.6,-1.5 2.6,-3.2 V 79.2 c 0,-1.8 -1.2,-3.2 -2.6,-3.2 -1.4,0 -2.6,1.5 -2.6,3.2 z"
   class="st2" />
	<path
   id="path12"
   d="m 114.7,97 c 0,2 1.2,3.7 2.6,3.7 1.4,0 2.6,-1.7 2.6,-3.7 V 79.6 c 0,-2 -1.2,-3.7 -2.6,-3.7 -1.4,0 -2.6,1.7 -2.6,3.7 z"
   class="st2" />
	<path
   id="path14"
   d="m 130.2,98.8 c 0,2.2 1.2,4 2.6,4 1.4,0 2.6,-1.8 2.6,-4 V 80 c 0,-2.2 -1.2,-4 -2.6,-4 -1.4,0 -2.6,1.8 -2.6,4 z"
   class="st2" />
	<path
   id="path16"
   d="m 169.1,99.1 c 0,2.2 1.2,4 2.6,4 1.4,0 2.6,-1.8 2.6,-4 V 80 c 0,-2.2 -1.2,-4 -2.6,-4 -1.4,0 -2.6,1.8 -2.6,4 z"
   class="st2" />
	<path
   id="path18"
   d="m 184.7,97.3 c 0,2 1.2,3.7 2.6,3.7 1.4,0 2.6,-1.7 2.6,-3.7 V 79.7 c 0,-2 -1.2,-3.7 -2.6,-3.7 -1.4,0 -2.6,1.7 -2.6,3.7 z"
   class="st2" />
	<path
   id="path20"
   d="m 200,94.9 c 0,1.8 1.2,3.3 2.6,3.3 1.4,0 2.6,-1.5 2.6,-3.3 V 79.3 c 0,-1.8 -1.2,-3.3 -2.6,-3.3 -1.4,0 -2.6,1.5 -2.6,3.3 z"
   class="st2" />
	<path
   id="path22"
   d="m 146.3,71.1 v -8.2 c -5.4,-13.5 16.3,-14.2 11.6,0 v 8.4 c 6.7,-2.4 10.2,-15.1 3,-21.8 -5.1,-4.2 -12.1,-5.1 -17.9,-0.1 -8.1,7.3 -4.2,18.4 3.3,21.7"
   class="st2" />
	<polygon
   id="polygon24"
   points="129,78.1 121.2,78.1 121.2,97.1 129,98.4 "
   class="st2" />
	<polygon
   id="polygon26"
   points="113.2,78.1 105.9,78.1 105.9,94.9 113.2,96 "
   class="st2" />
	<polygon
   id="polygon28"
   points="97.9,78.1 88.2,78.1 88.2,92.5 97.9,93.5 "
   class="st2" />
	<polygon
   id="polygon30"
   points="183.1,78.1 175.4,78.1 175.4,98.2 183.1,97.2 "
   class="st2" />
	<polygon
   id="polygon32"
   points="198.6,78.1 191.1,78.1 191.1,96 198.6,95 "
   class="st2" />
	<polygon
   id="polygon34"
   points="216.3,78.1 206.7,78.1 206.7,93.5 216.3,92.7 "
   class="st2" />
	<path
   id="path36"
   d="m 146.3,198.7 c -2.6,10.4 -5.5,29.4 -21,16.2 -16.7,-12.3 -35.1,-34.4 -44.6,-51.8 l -3,1.5 c 8.2,28.6 44.1,71.6 74.6,89.5 28.7,-17.9 60.6,-54.2 73.8,-88.8 l -3.3,-1.8 c -12.2,20.7 -33.7,45.2 -47.3,53.7 -11.1,8.5 -16,-7.9 -18.2,-18.2 l -5.4,-1.6 z"
   class="st2" />
	<path
   id="path38"
   d="m 231.1,147 c -8.8,10 -15.7,20.1 -24.4,29.9 -1.8,1.7 -0.1,4.4 1.6,3.2 3.9,-5.4 8.6,-10.7 12.3,-16.2 1,-1.7 1.6,-2.9 3.6,-2 l 2.4,1.2 c 1.1,0.8 1.6,1.6 0.5,4.1 -2.6,6.2 -5,11.5 -8.2,17.4 -0.5,2.8 0.8,4.3 2.4,4.5 8.2,-11.1 9.6,-25.5 9.8,-42.1"
   class="st2" />
	<path
   id="path40"
   d="m 72.5,147 c 8.7,10 16.2,20.7 24.9,30.4 1.8,1.7 -0.5,3.8 -2.2,2.6 -3.9,-5.4 -8.4,-10.5 -11.8,-16.2 -1,-1.7 -2,-2.9 -3.9,-2 l -2.4,1.2 c -1.1,0.8 -1.6,1.6 -0.5,4.1 2.6,6.2 4.9,11.5 8.1,17.4 0.5,2.8 -0.8,4.3 -2.4,4.5 -7.8,-11.2 -9.6,-25.4 -9.8,-42"
   class="st2" />
	<polygon
   id="polygon42"
   points="159.1,163.1 152,157.8 145.1,163.1 "
   class="st3" />
	<polygon
   id="polygon44"
   points="152.1,168.5 145.1,163.1 138.3,168.4 "
   class="st4" />
	<polygon
   id="polygon46"
   points="145.2,173.8 138.3,168.4 131.4,173.7 "
   class="st4" />
	<polygon
   id="polygon48"
   points="159,173.8 152,168.4 145.2,173.7 "
   class="st5" />
	<polygon
   id="polygon50"
   points="173.1,173.8 166.1,168.4 159.2,173.8 "
   class="st4" />
	<polygon
   id="polygon52"
   points="151.9,168.4 145.1,173.8 138.3,168.4 "
   class="st6" />
	<polygon
   id="polygon54"
   points="166,168.4 159.1,173.9 152,168.4 "
   class="st6" />
	<polygon
   id="polygon56"
   points="166.1,168.4 159,163.1 152,168.4 "
   class="st4" />
	<polygon
   id="polygon58"
   points="159,163.1 152,168.4 145.2,163.2 "
   class="st6" />
	<polygon
   id="polygon60"
   points="140.6,183.1 124.6,176.2 136.7,176.1 "
   class="st6" />
	<polygon
   id="polygon62"
   points="149.2,182.9 139.7,176.1 151,176.1 "
   class="st6" />
	<polygon
   id="polygon64"
   points="154.8,183 153.1,176.2 164.3,176.1 "
   class="st6" />
	<polygon
   id="polygon66"
   points="163.7,183.1 167.4,176.1 179.5,176 "
   class="st6" />
	<polygon
   id="polygon68"
   points="152.2,194.2 149,189.7 152.1,177.5 155.3,189.5 "
   class="st4" />
	<polygon
   id="polygon70"
   points="157,189.6 154.6,192.6 158.9,189.3 165.5,177.1 155.3,184.4 "
   class="st4" />
	<polygon
   id="polygon72"
   points="160,190.1 156.6,192.8 164.4,189.3 179,177.6 162.6,184.9 "
   class="st4" />
	<polygon
   id="polygon74"
   points="147.6,189.7 149.7,192.8 145.4,189.1 138.8,177 149,184.4 "
   class="st4" />
	<polygon
   id="polygon76"
   points="144.1,189.5 147.9,192.9 139.7,189.1 125.4,177.8 141.7,185 "
   class="st4" />
	<path
   id="path78"
   d="m 127.1,189.1 -13.7,0.2 13.1,4.6 c 1.6,-0.8 3.6,-0.8 5.5,-0.8 l -14.1,-3.1 14.6,1.7 c -1.8,-0.9 -4.2,-1.3 -5.4,-2.6"
   class="st6" />
	<path
   id="path80"
   d="m 151.8,195 -18.7,-3.2 -0.1,1.2 14.5,2.8 -18,3.2 c -1.3,0.5 -0.6,1.6 0.5,1.3 l 22,-3.9 23.2,4 c 1,0.1 1.3,-1.1 0.2,-1.3 l -19.1,-3.4 20.6,-3.7 c 2.9,-0.5 3.7,1.5 5.6,2.2 6.8,-1.5 6.5,-8.1 -1.2,-7.5 -1.5,1.3 -2.4,3.4 -4.4,4 z"
   class="st6" />
	<path
   id="path82"
   d="m 153.4,142.5 c 1.4,-1.8 1.3,-4.2 -1.1,-5.4 -2.2,-0.5 -4.2,-0.8 -6.3,-0.8 -1,0.3 -1.7,1.1 -2.1,2 -2.6,0.8 -5.7,0.6 -5.9,4.9 l 1.4,-1.2 8,1.1 c 1.8,0.3 2.4,2 2.8,3.6 1.6,2.4 2.6,4.3 5.7,5.4 -3.2,-1.9 -5,-5.5 -4.6,-8.5 6.5,2.4 8,7 9.9,12.3 -0.1,-3.4 -0.6,-7.1 -3.3,-9.8 4.4,1.1 8.9,2.4 13.3,4.2 -5.7,-4.6 -11.8,-5.9 -17.8,-7.8"
   class="st6" />
	<path
   id="path84"
   d="m 148.5,141 c 0.2,-1.1 0.9,-2.1 1.5,-2.9 -3.1,-1.1 -5.7,0 -7.5,2.5 2.1,-0.2 4,0 6,0.4"
   class="st7" />
	<path
   id="path86"
   d="m 147.2,138 c 0.8,0 1.4,0.4 1.4,0.8 0,0.5 -0.6,0.8 -1.4,0.8 -0.8,0 -1.4,-0.4 -1.4,-0.8 0,-0.4 0.6,-0.8 1.4,-0.8"
   class="st2" />
	<path
   id="path88"
   d="m 147.2,138.3 c 0.3,0 0.5,0.2 0.5,0.4 0,0.2 -0.2,0.4 -0.5,0.4 -0.3,0 -0.5,-0.2 -0.5,-0.4 0,-0.2 0.2,-0.4 0.5,-0.4"
   class="st5" />
	<path
   id="path90"
   d="m 152.6,137.3 2.6,0.2 c 3,-0.5 6.1,-0.2 9.1,0.3 -2.3,0.1 -5,0.3 -7.2,0.8 3.1,0.1 6.3,0.1 9.3,0.6 -2.9,0.3 -5.9,0.3 -8.7,1.1 3.7,0.2 7.5,0.8 11,2.1 -4.3,-0.5 -8.6,-0.6 -12.9,-0.7 5,0.9 9.3,1.5 14.4,4.3 -4.9,-1.3 -9.8,-2.1 -14.8,-2.9 l -2.1,-0.5 c 1.2,-1.7 1.4,-3.4 -0.7,-5.3"
   class="st6" />
	<path
   id="path92"
   d="m 152,144.8 c 0.4,3.2 2.4,5.1 5.1,7 -0.4,-4.2 -0.4,-4.6 -5.1,-7"
   class="st6" />
	<path
   id="path94"
   d="m 157.2,152.7 c -3.6,-0.3 -5.7,-2.1 -7.4,-4.9 0,3 0.5,6.1 -3.1,10 -1.4,1.5 -2,3.3 -3,5 l 8,-6.2 c 1.3,1 2.6,1.9 3.9,2.9 1.1,-2.2 1.9,-4.3 1.6,-6.8"
   class="st6" />
	<path
   id="path96"
   d="m 158.5,151.7 c 0.1,3.2 -0.4,6 -1.9,8.4 1.6,1.2 3.2,2.5 4.8,3.7 3.9,-1 11.8,-0.9 10.6,-5.6 3.4,-1.6 5.5,-2.2 5.9,-5.7 2.1,-1 6.1,-1.8 5.6,-4.4 2.9,-0.3 5.5,-0.9 8,-2.7 -0.8,-3.9 -2.6,-8.1 -5.9,-9.5 -5.9,9.3 -13.2,19.2 -22.6,23 -3.3,0.8 -4,-4 -4.5,-7.2"
   class="st6" />
	<path
   id="path98"
   d="m 144.3,159.5 -2.4,4.5 c -3.6,-1 -11.8,-1 -10.7,-5.7 -3.1,-1.6 -5.4,-2 -5.8,-5.5 -1.9,-1 -6.1,-1.9 -5.6,-4.5 -2.6,-0.3 -5.4,-0.9 -7.6,-2.7 0.6,-3.9 2.4,-8.1 5.4,-9.5 8.4,11 13.9,21 26.7,23.4"
   class="st6" />
	<path
   id="path100"
   d="m 111.2,146.3 c 0.1,-4.1 1.2,-8.6 6.2,-11.8 -6.2,-12.6 -11.4,-27.3 -12.7,-40.6 -9.7,5.3 -3.8,17.4 1,27.6 l -0.8,0.7 c -4.6,-8.3 -10.2,-19.7 -7.6,-24.4 -1.8,0 -3.6,0.9 -4.9,2.3 -1.8,2.1 -2.7,4.4 -0.6,7.5 3.5,5.8 6.9,11.6 10.3,17.5 l -0.7,1.3 C 97,119.3 90.3,111 88,105 c -0.6,0.7 -1.4,1.6 -2,2.2 -0.7,0.9 -2.5,2.2 -0.1,5.6 4.1,5.8 8.4,11.3 13.8,16.9 l -0.6,0.8 c -5.6,-5.8 -10.8,-11.7 -15.8,-17.8 -0.8,0.9 -1.3,2 -1.9,3.2 -0.5,1.1 -0.9,2.5 0.6,4.2 l 16,13.6 v 1.1 c -6.1,-4.3 -11.4,-8.7 -17,-13.3 -1.1,0 -1.6,1.8 -1.5,3.9 0,1.8 11.7,7.8 18.3,11.9 l -0.3,1 c -5.9,-3.1 -11.7,-6.6 -17.6,-9.4 -4.7,5.6 11.3,9.4 17.9,12.7 v 1 c -5.6,-1.8 -12.8,-5.5 -17,-5.7 -2.6,7.3 19.4,9.9 30.4,9.4"
   class="st6" />
	<path
   id="path102"
   d="m 192.7,145.9 c -0.1,-4.1 -1.2,-8.6 -6.2,-11.8 6.2,-12.6 11.3,-27.2 12.6,-40.6 9.6,5.3 3.7,17.3 -1,27.5 l 0.8,0.7 c 4.6,-8.2 10.1,-19.6 7.5,-24.3 1.8,0 3.6,0.9 4.8,2.3 1.8,2.1 2.7,4.4 0.6,7.5 -3.4,5.8 -6.8,11.6 -10.3,17.4 l 0.7,1.3 c 4.5,-7.1 11.2,-15.3 13.4,-21.4 0.6,0.7 1.4,1.6 2,2.2 0.7,0.9 2.5,2.2 0.1,5.6 -4.1,5.8 -8.3,11.2 -13.7,16.9 l 0.6,0.8 c 5.5,-5.8 10.7,-11.7 15.7,-17.7 0.8,0.9 1.3,2 1.9,3.2 0.5,1.1 0.9,2.5 -0.6,4.2 l -15.8,13.5 v 1.1 c 6,-4.2 11.3,-8.6 16.9,-13.2 1.1,0 1.5,1.8 1.5,3.9 0,1.8 -11.6,7.8 -18.2,11.9 l 0.3,1 c 5.8,-3.1 11.6,-6.6 17.5,-9.4 4.7,5.6 -11.2,9.4 -17.8,12.7 v 1 c 5.6,-1.8 12.7,-5.5 16.9,-5.7 2.6,7.4 -19.3,10 -30.2,9.4"
   class="st6" />
	<path
   id="path104"
   d="m 112.1,147.1 c -10.5,1.4 -19.2,-0.7 -28.4,-2.1 0,1.2 0.6,2.3 1.5,3.4 2.4,2.7 10.2,2.3 15.2,1.9 l 0.3,0.9 c -4.1,0.7 -8.2,1 -12.3,1.3 0.3,0.8 0.9,1.6 1.7,2.2 2.9,1.9 8.3,0.3 12.3,-0.9 l 0.5,0.8 c -3.3,1.1 -6.8,1.9 -10.2,2.8 0.5,0.7 1,1.4 1.8,1.9 2.7,1.3 7.7,-0.8 11,-2 l 0.5,0.8 c -2.9,1.4 -5.8,2.4 -8.7,3.3 0.6,0.9 1.4,1.7 2.7,2 1.9,0.4 6.2,-1.6 8.8,-3.1 l 0.7,0.7 c -2.4,1.4 -4.8,2.7 -7.4,3.8 0.8,0.7 1.7,1.5 3,1.8 2.3,0.7 5.9,-1.3 8.4,-3.2 l 1,0.7 c -2.1,1.5 -4.2,2.8 -6.5,4.1 0.6,0.7 1.3,0.9 2.5,1.3 2.6,0.8 6.2,-1.3 8.6,-3 l 0.6,0.6 c -1.8,1.4 -3.8,2.7 -5.9,3.8 1.1,0.6 1.6,1.2 3,1.3 2.4,0.3 5.6,-1.5 7.9,-3.2 l 0.8,0.5 c -1.8,1.5 -3.8,2.8 -5.8,4.1 1.8,0.7 3.2,1.3 5.1,1.1 5.4,-0.4 11.3,-5.1 16.4,-9.7 -7.9,-0.8 -11.8,-3 -11.1,-5.8 -2.8,-1.3 -5.5,-2.7 -5.7,-5.6 -2.7,-0.8 -5.3,-2.4 -5.7,-4.4 -2.6,-0.1 -4.7,-0.7 -6.6,-2.1"
   class="st6" />
	<path
   id="path106"
   d="m 191.8,146.8 c 10.4,1.4 19,-0.7 28,-2.1 0,1.2 -0.6,2.3 -1.5,3.4 -2.4,2.7 -10,2.3 -15,1.9 l -0.3,0.9 c 4,0.7 8.1,1 12.2,1.3 -0.3,0.8 -0.8,1.6 -1.7,2.2 -2.9,1.9 -8.2,0.3 -12.1,-0.9 l -0.5,0.8 c 3.3,1.1 6.7,1.9 10.1,2.8 -0.5,0.7 -1,1.4 -1.7,1.9 -2.7,1.3 -7.6,-0.8 -10.8,-2 l -0.5,0.8 c 2.9,1.4 5.7,2.4 8.6,3.3 -0.6,0.9 -1.4,1.7 -2.7,2 -1.8,0.4 -6.2,-1.6 -8.7,-3.1 l -0.7,0.7 c 2.4,1.4 4.8,2.7 7.3,3.8 -0.8,0.7 -1.7,1.5 -2.9,1.8 -2.3,0.7 -5.8,-1.3 -8.3,-3.2 l -1,0.7 c 2.1,1.5 4.1,2.8 6.4,4.1 -0.6,0.7 -1.3,0.9 -2.4,1.3 -2.6,0.8 -6.1,-1.3 -8.5,-3 l -0.6,0.6 c 1.8,1.4 3.8,2.7 5.8,3.8 -1.1,0.6 -1.6,1.2 -2.9,1.3 -2.3,0.3 -5.5,-1.5 -7.8,-3.2 l -0.8,0.5 c 1.8,1.5 3.8,2.8 5.7,4.1 -1.8,0.7 -3.2,1.3 -5.1,1.1 -5.4,-0.4 -11.1,-5.1 -16.2,-9.7 7.8,-0.8 11.7,-3 11,-5.8 2.8,-1.3 5.4,-2.7 5.7,-5.6 2.7,-0.8 5.2,-2.4 5.6,-4.4 2.3,-0.1 4.5,-0.7 6.3,-2.1"
   class="st6" />
	<polygon
   id="polygon108"
   points="144.9,115 135.8,97.3 138.3,112.2 "
   class="st6" />
	<polygon
   id="polygon110"
   points="144.9,115 135.8,97.3 138.3,112.2 "
   class="st8" />
	<polygon
   id="polygon112"
   points="158.5,114.9 167.4,97.2 156.4,108.5 "
   class="st6" />
	<polygon
   id="polygon114"
   points="158.5,114.9 167.4,97.2 156.4,108.5 "
   class="st8" />
	<polygon
   id="polygon116"
   points="158.6,114.8 164.9,112 167.4,97.2 "
   class="st6" />
	<polygon
   id="polygon118"
   points="158.6,114.8 164.9,112 167.4,97.2 "
   class="st8" />
	<path
   id="path120"
   d="m 131.2,125.9 -19.7,-7.8 24.4,5 c -1.7,0.6 -3.2,1.7 -4.7,2.8 z"
   class="st6" />
	<path
   id="path122"
   d="m 131.2,125.9 -19.7,-7.8 24.4,5 c -1.7,0.6 -3.2,1.7 -4.7,2.8 z"
   class="st8" />
	<polygon
   id="polygon124"
   points="135.9,123.2 111.5,118.1 131.6,117.9 "
   class="st6" />
	<polygon
   id="polygon126"
   points="135.9,123.2 111.5,118.1 131.6,117.9 "
   class="st8" />
	<path
   id="path128"
   d="m 120.2,104.1 15.7,18.9 c 2.3,-1.1 4.7,-1.8 7,-2.3 z"
   class="st6" />
	<path
   id="path130"
   d="m 120.2,104.1 15.7,18.9 c 2.3,-1.1 4.7,-1.8 7,-2.3 z"
   class="st8" />
	<polygon
   id="polygon132"
   points="144.8,114.9 146.8,108.4 135.8,97.4 "
   class="st6" />
	<polygon
   id="polygon134"
   points="144.8,114.9 146.8,108.4 135.8,97.4 "
   class="st8" />
	<path
   id="path136"
   d="m 160.5,120.8 -9,-27.5 0.3,26.6 c 3.1,0.1 5.9,0.2 8.7,0.9 z"
   class="st6" />
	<path
   id="path138"
   d="m 160.5,120.8 -9,-27.5 0.3,26.6 c 3.1,0.1 5.9,0.2 8.7,0.9 z"
   class="st8" />
	<polygon
   id="polygon140"
   points="160.4,120.9 183.2,103.8 158.5,114.8 "
   class="st6" />
	<polygon
   id="polygon142"
   points="160.4,120.9 183.2,103.8 158.5,114.8 "
   class="st8" />
	<polygon
   id="polygon144"
   points="142.9,120.9 144.8,115 120.2,104.2 "
   class="st6" />
	<polygon
   id="polygon146"
   points="142.9,120.9 144.8,115 120.2,104.2 "
   class="st8" />
	<path
   id="path148"
   d="m 151.5,93.2 -8.6,27.6 c 2.9,-0.6 5.9,-0.9 8.9,-0.8 z"
   class="st6" />
	<path
   id="path150"
   d="m 151.5,93.2 -8.6,27.6 c 2.9,-0.6 5.9,-0.9 8.9,-0.8 z"
   class="st8" />
	<path
   id="path152"
   d="m 167.7,123.1 15.3,-19.2 -22.4,16.9 c 2.3,0.4 4.9,1.3 7.1,2.3 z"
   class="st6" />
	<path
   id="path154"
   d="m 167.7,123.1 15.3,-19.2 -22.4,16.9 c 2.3,0.4 4.9,1.3 7.1,2.3 z"
   class="st8" />
	<path
   id="path156"
   d="m 172.3,125.7 19.6,-7.9 -24.1,5.3 c 1.6,0.8 3.1,1.5 4.5,2.6 z"
   class="st6" />
	<path
   id="path158"
   d="m 172.3,125.7 19.6,-7.9 -24.1,5.3 c 1.6,0.8 3.1,1.5 4.5,2.6 z"
   class="st8" />
	<polygon
   id="polygon160"
   points="167.7,123.1 172.1,117.7 192.1,117.8 "
   class="st6" />
	<polygon
   id="polygon162"
   points="167.7,123.1 172.1,117.7 192.1,117.8 "
   class="st8" />
	<path
   id="path164"
   d="m 128.6,127.9 c 5.9,-5.3 14.1,-8.1 23.2,-8 8.9,-0.1 17.6,2.9 23.6,8 -16.4,-8 -31.4,-7.4 -46.8,0 z"
   class="st6" />
	<path
   id="path166"
   d="m 128.6,127.9 c 5.9,-5.3 14.1,-8.1 23.2,-8 8.9,-0.1 17.6,2.9 23.6,8 -16.4,-8 -31.4,-7.4 -46.8,0 z"
   class="st8" />
	<g
   id="g228">
		<polygon
   id="polygon168"
   points="144.9,115 135.8,97.3 138.3,112.2 "
   class="st9" />
		<polygon
   id="polygon170"
   points="144.9,115 135.8,97.3 138.3,112.2 "
   class="st9" />
		<polygon
   id="polygon172"
   points="158.5,114.9 167.4,97.2 156.4,108.5 "
   class="st9" />
		<polygon
   id="polygon174"
   points="158.5,114.9 167.4,97.2 156.4,108.5 "
   class="st9" />
		<polygon
   id="polygon176"
   points="158.6,114.8 164.9,112 167.4,97.2 "
   class="st9" />
		<polygon
   id="polygon178"
   points="158.6,114.8 164.9,112 167.4,97.2 "
   class="st9" />
		<path
   id="path180"
   d="m 131.2,125.9 -19.7,-7.8 24.4,5 c -1.7,0.6 -3.2,1.7 -4.7,2.8 z"
   class="st9" />
		<path
   id="path182"
   d="m 131.2,125.9 -19.7,-7.8 24.4,5 c -1.7,0.6 -3.2,1.7 -4.7,2.8 z"
   class="st9" />
		<polygon
   id="polygon184"
   points="135.9,123.2 111.5,118.1 131.6,117.9 "
   class="st9" />
		<polygon
   id="polygon186"
   points="135.9,123.2 111.5,118.1 131.6,117.9 "
   class="st9" />
		<path
   id="path188"
   d="m 120.2,104.1 15.7,18.9 c 2.3,-1.1 4.7,-1.8 7,-2.3 z"
   class="st9" />
		<path
   id="path190"
   d="m 120.2,104.1 15.7,18.9 c 2.3,-1.1 4.7,-1.8 7,-2.3 z"
   class="st9" />
		<polygon
   id="polygon192"
   points="144.8,114.9 146.8,108.4 135.8,97.4 "
   class="st9" />
		<polygon
   id="polygon194"
   points="144.8,114.9 146.8,108.4 135.8,97.4 "
   class="st9" />
		<path
   id="path196"
   d="m 160.5,120.8 -9,-27.5 0.3,26.6 c 3.1,0.1 5.9,0.2 8.7,0.9 z"
   class="st9" />
		<path
   id="path198"
   d="m 160.5,120.8 -9,-27.5 0.3,26.6 c 3.1,0.1 5.9,0.2 8.7,0.9 z"
   class="st9" />
		<polygon
   id="polygon200"
   points="160.4,120.9 183.2,103.8 158.5,114.8 "
   class="st9" />
		<polygon
   id="polygon202"
   points="160.4,120.9 183.2,103.8 158.5,114.8 "
   class="st9" />
		<polygon
   id="polygon204"
   points="142.9,120.9 144.8,115 120.2,104.2 "
   class="st9" />
		<polygon
   id="polygon206"
   points="142.9,120.9 144.8,115 120.2,104.2 "
   class="st9" />
		<path
   id="path208"
   d="m 151.5,93.2 -8.6,27.6 c 2.9,-0.6 5.9,-0.9 8.9,-0.8 z"
   class="st9" />
		<path
   id="path210"
   d="m 151.5,93.2 -8.6,27.6 c 2.9,-0.6 5.9,-0.9 8.9,-0.8 z"
   class="st9" />
		<path
   id="path212"
   d="m 167.7,123.1 15.3,-19.2 -22.4,16.9 c 2.3,0.4 4.9,1.3 7.1,2.3 z"
   class="st9" />
		<path
   id="path214"
   d="m 167.7,123.1 15.3,-19.2 -22.4,16.9 c 2.3,0.4 4.9,1.3 7.1,2.3 z"
   class="st9" />
		<path
   id="path216"
   d="m 172.3,125.7 19.6,-7.9 -24.1,5.3 c 1.6,0.8 3.1,1.5 4.5,2.6 z"
   class="st9" />
		<path
   id="path218"
   d="m 172.3,125.7 19.6,-7.9 -24.1,5.3 c 1.6,0.8 3.1,1.5 4.5,2.6 z"
   class="st9" />
		<polygon
   id="polygon220"
   points="167.7,123.1 172.1,117.7 192.1,117.8 "
   class="st9" />
		<polygon
   id="polygon222"
   points="167.7,123.1 172.1,117.7 192.1,117.8 "
   class="st9" />
		<path
   id="path224"
   d="m 128.6,127.9 c 5.9,-5.3 14.1,-8.1 23.2,-8 8.9,-0.1 17.6,2.9 23.6,8 -16.4,-8 -31.4,-7.4 -46.8,0 z"
   class="st9" />
		<path
   id="path226"
   d="m 128.6,127.9 c 5.9,-5.3 14.1,-8.1 23.2,-8 8.9,-0.1 17.6,2.9 23.6,8 -16.4,-8 -31.4,-7.4 -46.8,0 z"
   class="st9" />
	</g>
</g>
</svg>
